<?xml version="1.0" encoding="UTF-8"?>
<svg width="89px" height="32px" viewBox="0 0 89 32" version="1.1" xmlns="http://www.w3.org/2000/svg" xmlns:xlink="http://www.w3.org/1999/xlink">
    <!-- Generator: sketchtool 64 (101010) - https://sketch.com -->
    <title>A7A7C045-495B-4E81-BE78-0C74363E8C65</title>
    <desc>Created with sketchtool.</desc>
    <defs>
        <polygon id="path-1" points="0 0.0673846154 31.7624931 0.0673846154 31.7624931 31.6922154 0 31.6922154"></polygon>
        <polygon id="path-3" points="0.155533681 0.112676923 9.57986111 0.112676923 9.57986111 20.9668308 0.155533681 20.9668308"></polygon>
    </defs>
    <g id="Home" stroke="none" stroke-width="1" fill="none" fill-rule="evenodd">
        <g id="DS/Home-Page" transform="translate(-74.000000, -22.000000)">
            <g id="DS/Navigation/Navigation">
                <g id="Navigation">
                    <g id="uTest" transform="translate(74.000000, 22.000000)">
                        <g id="Group-3" transform="translate(0.000000, 0.240308)">
                            <mask id="mask-2" fill="white">
                                <use xlink:href="#path-1"></use>
                            </mask>
                            <g id="Clip-2"></g>
                            <path d="M15.8812465,0.0672923077 C24.6520729,0.0672923077 31.7624931,7.14698462 31.7624931,15.8799077 C31.7624931,24.6128308 24.6520729,31.6922154 15.8812465,31.6922154 C7.11011111,31.6922154 0,24.6128308 0,15.8799077 C0,7.14698462 7.11011111,0.0672923077 15.8812465,0.0672923077" id="Fill-1" fill="#00A8CC" mask="url(#mask-2)"></path>
                        </g>
                        <path d="M15.8812465,25.9662462 C11.1688819,25.9662462 8.26340278,23.2422462 8.26340278,18.1447077 L8.26340278,8.87947692 L12.1318125,8.87947692 L12.1318125,17.9754769 C12.1318125,20.7948615 13.5249097,22.3179385 15.9149306,22.3179385 C18.3052604,22.3179385 19.6986667,20.9247077 19.6986667,18.0880923 L19.6986667,8.82286154 L23.5951979,8.82286154 L23.5951979,17.9754769 C23.6746181,23.3610154 20.5933021,25.9662462 15.8812465,25.9662462" id="Fill-4" fill="#FFFFFF"></path>
                        <polygon id="Fill-6" fill="#272626" points="51.4212333 3.43738462 36.1799833 3.43738462 36.1799833 6.85461538 42.1720319 6.85461538 42.1720319 16.0016923 42.1720319 28.2841538 45.4344382 28.2841538 45.4344382 15.714 45.4344382 6.85461538 51.4212333 6.85461538"></polygon>
                        <g id="Group-10" transform="translate(79.420139, 7.317231)">
                            <mask id="mask-4" fill="white">
                                <use xlink:href="#path-3"></use>
                            </mask>
                            <g id="Clip-9"></g>
                            <polygon id="Fill-8" fill="#272626" mask="url(#mask-4)" points="6.32311007 4.80467692 6.32311007 0.112676923 2.89104757 0.112676923 2.89104757 4.80467692 0.155533681 4.80467692 0.155533681 7.93452308 2.89104757 7.93452308 2.89104757 10.8892923 2.89104757 20.9668308 6.32311007 20.9668308 6.32311007 11.6957538 6.32311007 7.93452308 9.57995382 7.93452308 9.57995382 4.80467692"></polygon>
                        </g>
                        <path d="M51.8346816,18.2066154 C52.339324,17.0401538 53.1913135,16.0558462 54.275383,15.3869231 C55.0337372,15.0112308 55.8699663,14.818 56.7167024,14.8232308 C57.5727094,14.7976923 58.4169733,15.0275385 59.1410253,15.4826154 C60.1867753,16.1226154 61.0019906,17.0761538 61.4686226,18.2066154 L51.8346816,18.2066154 Z M63.932192,15.714 C63.609876,15.1998462 63.219574,14.7312308 62.7714837,14.3210769 C61.2050219,12.6958462 59.0412094,11.7755385 56.779126,11.7721538 C54.0003483,11.6915385 51.3785566,13.0512308 49.8522684,15.3644615 C48.9230219,16.7524615 48.4372302,18.3881538 48.4588622,20.0564615 C48.346376,24.6456923 51.9913587,28.4570769 56.600817,28.5693846 C56.6922892,28.5718462 56.7837615,28.5721538 56.8755427,28.5718462 C59.849626,28.6893846 62.686501,27.3204615 64.4362163,24.9229231 L61.9952059,23.0112308 C60.8539663,24.5103077 59.058824,25.3724615 57.1700462,25.3287692 C55.8900531,25.3469231 54.6406538,24.9401538 53.6183899,24.1730769 C52.5707858,23.4795385 51.8742372,22.1487692 51.5852962,20.5241538 L65.3710253,20.5241538 C65.2134212,18.8423077 64.7248483,17.2078462 63.932192,15.714 L63.932192,15.714 Z" id="Fill-11" fill="#272626"></path>
                        <path d="M72.7734149,18.438 C71.0289531,17.7441538 70.2134288,17.0450769 70.2134288,16.3515385 C70.2134288,15.3081538 70.9099774,14.8456923 72.3089462,14.8456923 C72.8339844,14.8376923 73.353151,14.9576923 73.8213281,15.1952308 C74.2857969,15.4266154 74.7499566,15.7592308 75.333401,16.1201538 L77.5423316,14.0958462 C75.622342,12.59 73.8778802,11.7776923 72.3658073,11.7776923 C70.9912517,11.7352308 69.648217,12.1878462 68.5820712,13.0524615 C67.6688941,13.8189231 67.1203698,14.9315385 67.0699983,16.1201538 L67.0699983,16.47 C67.0406406,17.4823077 67.4176545,18.4644615 68.1179115,19.1992308 C68.814151,19.8930769 70.1513142,20.5921538 72.0144427,21.3983077 C73.9344323,22.0921538 74.8463733,22.9041538 74.8463733,23.8290769 C74.8309219,24.3709231 74.5178767,24.8607692 74.0305399,25.1035385 C73.4656372,25.4866154 72.7941198,25.6841538 72.1105503,25.6672308 C70.9798177,25.6204615 69.9167622,25.1176923 69.1655156,24.2746154 L67.1324219,25.5487692 C68.5255191,27.6355385 69.8679358,28.7352308 72.0768663,28.7352308 C73.5277517,28.7850769 74.9359913,28.2407692 75.9733976,27.2293846 C76.9765017,26.3278462 77.5639635,25.0558462 77.5988837,23.7106154 C77.6304045,22.6096923 77.2113628,21.5429231 76.4375573,20.7555385 C75.8544219,19.8250769 74.5178767,19.1315385 72.7734149,18.438" id="Fill-13" fill="#272626"></path>
                    </g>
                </g>
            </g>
        </g>
    </g>
</svg>